<svg data-v-2cb57da0="" version="1.0" xmlns="http://www.w3.org/2000/svg" xmlns:xlink="http://www.w3.org/1999/xlink"
    width="100%" height="100%" viewBox="0 0 340.000000 250.000000" preserveAspectRatio="xMidYMid meet"
    color-interpolation-filters="sRGB" style="margin: auto;">
    <g data-v-2cb57da0="" fill="#333" class="iconlettersvg-g iconlettersvg"
        transform="translate(115.55900031328201,101.37337691569701)">
        <g>
            <g class="tp-name" transform="translate(0.7794723510742188,0)">
                <g transform="scale(1)">
                    <g transform="translate(0, 0)">
                        <g class="name-imagesvg">
                            <g>
                                <rect fill="#333" fill-opacity="0" stroke-width="2" x="0" y="0"
                                    width="33.09724308056749" height="33.097245643620006" class="image-rect"></rect>
                                <svg x="0" y="0" width="33.09724308056749" height="33.097245643620006"
                                    filtersec="colorsb5984020894" class="image-svg-svg primary"
                                    style="overflow: visible;"><svg xmlns="http://www.w3.org/2000/svg"
                                        viewBox="0 0 24.63 24.63">
                                        <title>资源 18</title>
                                        <path fill="#20a1d2" d="M15 9.63V0H0v24.63h24.63v-15H15z"></path>
                                        <path fill="#fff" opacity=".5" d="M0 9.63h15v15H0z"></path>
                                    </svg></svg>
                                <!---->
                            </g>
                        </g>
                    </g>
                    <g transform="translate(33.09724308056749, 0)">
                        <g class="name-imagesvg">
                            <g>
                                <rect fill="#333" fill-opacity="0" stroke-width="2" x="0" y="0"
                                    width="33.097245643620006" height="33.097245643620006" class="image-rect"></rect>
                                <svg x="0" y="0" width="33.097245643620006" height="33.097245643620006"
                                    filtersec="colorsb7232766193" class="image-svg-svg primary"
                                    style="overflow: visible;"><svg xmlns="http://www.w3.org/2000/svg"
                                        viewBox="0 0 28.02 28.02">
                                        <title>资源 16</title>
                                        <path d="M28 14A14 14 0 1 1 14 0a14 14 0 0 1 14 14z" fill="#bd4393"></path>
                                        <path d="M19.62 14A5.61 5.61 0 1 1 14 8.4a5.62 5.62 0 0 1 5.62 5.6z" fill="#fff"
                                            opacity=".5"></path>
                                    </svg></svg>
                                <!---->
                            </g>
                        </g>
                    </g>
                    <g transform="translate(66.1944887241875, 0)">
                        <g class="name-imagesvg">
                            <g>
                                <rect fill="#333" fill-opacity="0" stroke-width="2" x="0" y="0"
                                    width="41.13184278295618" height="33.097245643620006" class="image-rect"></rect>
                                <svg x="0" y="0" width="41.13184278295618" height="33.097245643620006"
                                    filtersec="colorsb43426504" class="image-svg-svg primary"
                                    style="overflow: visible;"><svg xmlns="http://www.w3.org/2000/svg"
                                        viewBox="0 0 34.83 28.02">
                                        <title>资源 25</title>
                                        <path fill="#e94337" d="M6.81 10.6L17.418-.008l17.416 17.416-10.606 10.606z">
                                        </path>
                                        <path fill="#e94337" d="M17.418-.002l10.607 10.607L10.609 28.02.002 17.414z">
                                        </path>
                                        <path fill="#fff" opacity=".2"
                                            d="M6.814 10.605L17.42-.002l10.607 10.607L17.42 21.21z"></path>
                                    </svg></svg>
                                <!---->
                            </g>
                        </g>
                    </g>
                </g>
            </g>
        </g>
        <g data-gra="path-slogan" fill-rule="" class="tp-slogan" fill="#333" transform="translate(0,39.10292434692383)">
            <!---->
            <!---->
            <g transform="scale(1, 1)">
                <g transform="scale(1)">
                    <path
                        d="M0.62-3.94C0.62-3.30 0.71-2.72 0.88-2.21C1.05-1.71 1.29-1.28 1.60-0.93C1.91-0.58 2.27-0.32 2.69-0.13C3.11 0.05 3.57 0.14 4.07 0.14C4.57 0.14 5.02 0.04 5.41-0.16C5.80-0.36 6.16-0.64 6.47-1.00L5.90-1.61C5.65-1.33 5.38-1.11 5.09-0.96C4.81-0.81 4.48-0.73 4.09-0.73C3.72-0.73 3.38-0.81 3.08-0.96C2.78-1.11 2.52-1.33 2.32-1.61C2.11-1.89 1.95-2.23 1.83-2.62C1.71-3.02 1.66-3.46 1.66-3.96C1.66-4.45 1.72-4.89 1.84-5.28C1.96-5.67 2.12-6.01 2.34-6.28C2.56-6.56 2.82-6.77 3.12-6.92C3.42-7.07 3.76-7.14 4.14-7.14C4.48-7.14 4.77-7.07 5.02-6.94C5.27-6.81 5.50-6.63 5.71-6.41L6.28-7.04C6.04-7.30 5.75-7.53 5.39-7.72C5.03-7.92 4.61-8.02 4.13-8.02C3.62-8.02 3.16-7.92 2.73-7.73C2.30-7.55 1.93-7.28 1.62-6.92C1.31-6.57 1.06-6.14 0.89-5.64C0.71-5.14 0.62-4.57 0.62-3.94ZM10.49 0.14C10.98 0.14 11.44 0.05 11.85-0.14C12.26-0.34 12.62-0.61 12.92-0.97C13.22-1.32 13.45-1.75 13.61-2.26C13.78-2.77 13.86-3.34 13.86-3.97C13.86-4.60 13.78-5.16 13.61-5.66C13.45-6.16 13.22-6.58 12.92-6.93C12.62-7.28 12.26-7.55 11.85-7.73C11.44-7.92 10.98-8.02 10.49-8.02C9.99-8.02 9.54-7.92 9.13-7.74C8.71-7.56 8.36-7.29 8.06-6.94C7.77-6.59 7.54-6.17 7.37-5.67C7.21-5.17 7.13-4.60 7.13-3.97C7.13-3.34 7.21-2.77 7.37-2.26C7.54-1.75 7.77-1.32 8.06-0.97C8.36-0.61 8.71-0.34 9.13-0.14C9.54 0.05 9.99 0.14 10.49 0.14ZM10.49-0.73C10.14-0.73 9.82-0.81 9.53-0.96C9.25-1.11 9.01-1.33 8.80-1.61C8.60-1.90 8.44-2.24 8.33-2.63C8.22-3.03 8.16-3.48 8.16-3.97C8.16-4.46 8.22-4.90 8.33-5.29C8.44-5.68 8.60-6.02 8.80-6.29C9.01-6.56 9.25-6.77 9.53-6.92C9.82-7.07 10.14-7.14 10.49-7.14C10.84-7.14 11.16-7.07 11.44-6.92C11.73-6.77 11.97-6.56 12.17-6.29C12.38-6.02 12.54-5.68 12.65-5.29C12.76-4.90 12.82-4.46 12.82-3.97C12.82-3.48 12.76-3.03 12.65-2.63C12.54-2.24 12.38-1.90 12.17-1.61C11.97-1.33 11.73-1.11 11.44-0.96C11.16-0.81 10.84-0.73 10.49-0.73ZM18.46 0.14C18.95 0.14 19.41 0.05 19.82-0.14C20.23-0.34 20.59-0.61 20.89-0.97C21.19-1.32 21.42-1.75 21.58-2.26C21.75-2.77 21.83-3.34 21.83-3.97C21.83-4.60 21.75-5.16 21.58-5.66C21.42-6.16 21.19-6.58 20.89-6.93C20.59-7.28 20.23-7.55 19.82-7.73C19.41-7.92 18.95-8.02 18.46-8.02C17.96-8.02 17.51-7.92 17.09-7.74C16.68-7.56 16.33-7.29 16.03-6.94C15.74-6.59 15.51-6.17 15.34-5.67C15.18-5.17 15.10-4.60 15.10-3.97C15.10-3.34 15.18-2.77 15.34-2.26C15.51-1.75 15.74-1.32 16.03-0.97C16.33-0.61 16.68-0.34 17.09-0.14C17.51 0.05 17.96 0.14 18.46 0.14ZM18.46-0.73C18.10-0.73 17.79-0.81 17.50-0.96C17.22-1.11 16.97-1.33 16.77-1.61C16.57-1.90 16.41-2.24 16.30-2.63C16.18-3.03 16.13-3.48 16.13-3.97C16.13-4.46 16.18-4.90 16.30-5.29C16.41-5.68 16.57-6.02 16.77-6.29C16.97-6.56 17.22-6.77 17.50-6.92C17.79-7.07 18.10-7.14 18.46-7.14C18.81-7.14 19.13-7.07 19.41-6.92C19.69-6.77 19.94-6.56 20.14-6.29C20.35-6.02 20.50-5.68 20.62-5.29C20.73-4.90 20.78-4.46 20.78-3.97C20.78-3.48 20.73-3.03 20.62-2.63C20.50-2.24 20.35-1.90 20.14-1.61C19.94-1.33 19.69-1.11 19.41-0.96C19.13-0.81 18.81-0.73 18.46-0.73ZM23.52-7.87L23.52 0L27.96 0L27.96-0.85L24.52-0.85L24.52-7.87ZM29.35-7.87L29.35 0L31.37 0C31.96 0 32.48-0.09 32.94-0.27C33.40-0.45 33.78-0.71 34.09-1.05C34.40-1.39 34.64-1.81 34.80-2.30C34.96-2.79 35.04-3.35 35.04-3.97C35.04-5.23 34.72-6.19 34.09-6.86C33.46-7.54 32.54-7.87 31.32-7.87ZM31.25-0.82L30.35-0.82L30.35-7.06L31.25-7.06C32.17-7.06 32.86-6.79 33.32-6.26C33.78-5.74 34.01-4.97 34.01-3.97C34.01-2.97 33.78-2.20 33.32-1.64C32.86-1.09 32.17-0.82 31.25-0.82ZM39.64 0.14C40.13 0.14 40.59 0.05 41.00-0.14C41.41-0.34 41.77-0.61 42.07-0.97C42.37-1.32 42.60-1.75 42.76-2.26C42.93-2.77 43.01-3.34 43.01-3.97C43.01-4.60 42.93-5.16 42.76-5.66C42.60-6.16 42.37-6.58 42.07-6.93C41.77-7.28 41.41-7.55 41.00-7.73C40.59-7.92 40.13-8.02 39.64-8.02C39.14-8.02 38.69-7.92 38.27-7.74C37.86-7.56 37.51-7.29 37.21-6.94C36.92-6.59 36.69-6.17 36.52-5.67C36.36-5.17 36.28-4.60 36.28-3.97C36.28-3.34 36.36-2.77 36.52-2.26C36.69-1.75 36.92-1.32 37.21-0.97C37.51-0.61 37.86-0.34 38.27-0.14C38.69 0.05 39.14 0.14 39.64 0.14ZM39.64-0.73C39.28-0.73 38.97-0.81 38.68-0.96C38.40-1.11 38.15-1.33 37.95-1.61C37.75-1.90 37.59-2.24 37.48-2.63C37.36-3.03 37.31-3.48 37.31-3.97C37.31-4.46 37.36-4.90 37.48-5.29C37.59-5.68 37.75-6.02 37.95-6.29C38.15-6.56 38.40-6.77 38.68-6.92C38.97-7.07 39.28-7.14 39.64-7.14C39.99-7.14 40.31-7.07 40.59-6.92C40.87-6.77 41.12-6.56 41.32-6.29C41.53-6.02 41.68-5.68 41.80-5.29C41.91-4.90 41.96-4.46 41.96-3.97C41.96-3.48 41.91-3.03 41.80-2.63C41.68-2.24 41.53-1.90 41.32-1.61C41.12-1.33 40.87-1.11 40.59-0.96C40.31-0.81 39.99-0.73 39.64-0.73ZM43.82-7.87L45.49 0L46.68 0L47.84-4.74C47.91-5.04 47.97-5.34 48.04-5.63C48.11-5.93 48.18-6.22 48.24-6.53L48.29-6.53C48.35-6.22 48.41-5.93 48.47-5.63C48.53-5.34 48.60-5.04 48.67-4.74L49.86 0L51.06 0L52.69-7.87L51.73-7.87L50.90-3.59C50.82-3.16 50.75-2.74 50.68-2.32C50.60-1.90 50.53-1.48 50.46-1.04L50.41-1.04C50.32-1.48 50.22-1.90 50.12-2.33C50.03-2.75 49.93-3.17 49.84-3.59L48.74-7.87L47.83-7.87L46.74-3.59C46.65-3.16 46.56-2.74 46.46-2.32C46.37-1.90 46.28-1.48 46.19-1.04L46.14-1.04C46.07-1.48 45.99-1.90 45.91-2.32C45.83-2.73 45.76-3.16 45.68-3.59L44.86-7.87ZM54.06-7.87L54.06 0L55.01 0L55.01-4.12C55.01-4.53 54.99-4.95 54.97-5.36C54.94-5.77 54.91-6.18 54.88-6.58L54.92-6.58L55.78-4.96L58.63 0L59.66 0L59.66-7.87L58.72-7.87L58.72-3.80C58.72-3.39 58.73-2.97 58.76-2.54C58.79-2.11 58.81-1.70 58.84-1.30L58.79-1.30L57.94-2.93L55.09-7.87ZM65.88-7.03L65.88 0L66.89 0L66.89-7.03L69.26-7.03L69.26-7.87L63.50-7.87L63.50-7.03ZM71.68-4.14L71.68-7.07L73.00-7.07C73.61-7.07 74.08-6.96 74.41-6.76C74.74-6.55 74.90-6.18 74.90-5.66C74.90-5.15 74.74-4.77 74.41-4.52C74.08-4.27 73.61-4.14 73.00-4.14ZM75.00 0L76.13 0L74.14-3.43C74.67-3.57 75.10-3.82 75.42-4.19C75.74-4.56 75.90-5.05 75.90-5.66C75.90-6.07 75.83-6.42 75.70-6.70C75.56-6.98 75.37-7.20 75.13-7.38C74.88-7.56 74.59-7.68 74.25-7.76C73.91-7.83 73.54-7.87 73.14-7.87L70.68-7.87L70.68 0L71.68 0L71.68-3.32L73.10-3.32ZM80.88-3.20L78.52-3.20L78.89-4.40C79.03-4.84 79.17-5.28 79.30-5.72C79.42-6.15 79.55-6.60 79.67-7.06L79.72-7.06C79.84-6.60 79.97-6.15 80.10-5.72C80.23-5.28 80.36-4.84 80.51-4.40ZM81.13-2.40L81.88 0L82.94 0L80.28-7.87L79.15-7.87L76.49 0L77.51 0L78.26-2.40ZM83.48-3.94C83.48-3.30 83.57-2.72 83.74-2.21C83.91-1.71 84.15-1.28 84.46-0.93C84.77-0.58 85.13-0.32 85.55-0.13C85.97 0.05 86.43 0.14 86.93 0.14C87.43 0.14 87.88 0.04 88.27-0.16C88.66-0.36 89.02-0.64 89.33-1.00L88.76-1.61C88.51-1.33 88.24-1.11 87.95-0.96C87.67-0.81 87.34-0.73 86.95-0.73C86.58-0.73 86.24-0.81 85.94-0.96C85.64-1.11 85.38-1.33 85.18-1.61C84.97-1.89 84.81-2.23 84.69-2.62C84.57-3.02 84.52-3.46 84.52-3.96C84.52-4.45 84.58-4.89 84.70-5.28C84.82-5.67 84.98-6.01 85.20-6.28C85.42-6.56 85.68-6.77 85.98-6.92C86.28-7.07 86.62-7.14 87-7.14C87.34-7.14 87.63-7.07 87.88-6.94C88.13-6.81 88.36-6.63 88.57-6.41L89.14-7.04C88.90-7.30 88.61-7.53 88.25-7.72C87.89-7.92 87.47-8.02 86.99-8.02C86.48-8.02 86.02-7.92 85.59-7.73C85.16-7.55 84.79-7.28 84.48-6.92C84.17-6.57 83.92-6.14 83.75-5.64C83.57-5.14 83.48-4.57 83.48-3.94ZM90.79-7.87L90.79 0L91.79 0L91.79-2.50L93.14-4.09L95.50 0L96.61 0L93.77-4.87L96.23-7.87L95.10-7.87L91.82-3.92L91.79-3.92L91.79-7.87ZM97.74-7.87L97.74 0L102.40 0L102.40-0.85L98.74-0.85L98.74-3.71L101.72-3.71L101.72-4.56L98.74-4.56L98.74-7.03L102.28-7.03L102.28-7.87ZM105.06-4.14L105.06-7.07L106.38-7.07C107.00-7.07 107.47-6.96 107.80-6.76C108.12-6.55 108.29-6.18 108.29-5.66C108.29-5.15 108.12-4.77 107.80-4.52C107.47-4.27 107.00-4.14 106.38-4.14ZM108.38 0L109.51 0L107.52-3.43C108.06-3.57 108.48-3.82 108.80-4.19C109.12-4.56 109.28-5.05 109.28-5.66C109.28-6.07 109.22-6.42 109.08-6.70C108.94-6.98 108.75-7.20 108.51-7.38C108.27-7.56 107.97-7.68 107.63-7.76C107.29-7.83 106.92-7.87 106.52-7.87L104.06-7.87L104.06 0L105.06 0L105.06-3.32L106.49-3.32Z"
                        transform="translate(-0.624, 8.016)"></path>
                </g>
            </g>
        </g>
    </g>
    <defs v-gra="od"></defs>
</svg>