<?xml version="1.0" encoding="utf-8"?>
<!-- Generator: Adobe Illustrator 18.1.0, SVG Export Plug-In . SVG Version: 6.00 Build 0)  -->
<svg version="1.1" id="Layer_1" xmlns="http://www.w3.org/2000/svg" xmlns:xlink="http://www.w3.org/1999/xlink" x="0px" y="0px"
	 viewBox="0 0 150 150" enable-background="new 0 0 150 150" xml:space="preserve">
<g>
	<linearGradient id="SVGID_1_" gradientUnits="userSpaceOnUse" x1="75.253" y1="16.6146" x2="75.253" y2="66.7747">
		<stop  offset="0" style="stop-color:#FFC03B"/>
		<stop  offset="1" style="stop-color:#EA6847"/>
	</linearGradient>
	<path fill="url(#SVGID_1_)" d="M15.5,68.1l6.4,3.3c-0.1,0.9-0.1,1.6-0.1,2.6h17.5c0.3-16,11.5-30.7,27.9-34.4
		c19.4-4.5,38.7,7.6,43.2,27c0.6,2.5,0.9,5.4,0.9,7.4h17.5c0-1,0-1.4-0.1-2.1l6.3-3c2.3-0.5,3.7-3.1,3-5.8l-1.9-7.9
		c-0.6-2.7-3-4.4-5.3-3.8l-7.2,0.2c-1-2.1-2.1-4-3.3-5.9l3.9-5.7c1.7-1.6,1.6-4.5-0.3-6.5l-5.5-5.9c-1.9-2-4.8-2.3-6.5-0.7l-6.2,3.7
		c-1.8-1.3-3.8-2.4-5.8-3.5l0.6-6.9c0.7-2.3-0.9-4.7-3.5-5.5l-7.7-2.3c-2.6-0.8-5.3,0.4-6,2.7l-3.5,6.3c-2.2-0.2-4.5-0.2-6.7-0.1
		l-3-6.3c-0.5-2.3-3.1-3.7-5.8-3.1l-7.9,1.8c-2.7,0.6-4.4,3-3.9,5.3l0.1,7.2c-2.6,1.2-5,2.6-7.4,4.2l-5.8-3.8
		c-1.7-1.7-4.6-1.5-6.5,0.4l-5.8,5.7c-1.9,1.9-2.2,4.8-0.5,6.5l3.9,6.1c-1.2,1.9-2.4,3.8-3.4,5.9l-6.9-0.4c-2.3-0.6-4.7,1-5.4,3.6
		l-2.2,7.8C11.9,64.8,13.2,67.4,15.5,68.1z"/>
	<linearGradient id="SVGID_2_" gradientUnits="userSpaceOnUse" x1="75.2009" y1="141.0394" x2="75.2009" y2="94.7581">
		<stop  offset="0" style="stop-color:#619F42"/>
		<stop  offset="1" style="stop-color:#5B784D"/>
	</linearGradient>
	<path fill="url(#SVGID_2_)" d="M134.9,82.2l-6.3-3.3c0.1-1,0.1-1.9,0.1-2.9h-17.5c-0.4,16-11.6,30.2-27.9,33.9
		c-19.4,4.5-38.7-7.5-43.2-26.9c-0.5-2.4-0.8-5-0.9-7H21.7c0,1,0,1.5,0.1,2.4l-6.2,3c-2.3,0.6-3.6,3.2-2.9,5.8l2,7.8
		c0.7,2.6,3.1,4.3,5.4,3.7l7.2-0.3c1,2,2.1,4,3.4,5.9l-3.8,5.7c-1.7,1.6-1.5,4.6,0.4,6.5l5.6,5.8c1.9,2,4.8,2.2,6.5,0.6l6.1-3.8
		c1.9,1.3,3.8,2.4,5.9,3.4l-0.5,6.9c-0.6,2.3,0.9,4.7,3.6,5.5l7.8,2.2c2.6,0.7,5.3-0.5,5.9-2.8l3.4-6.3c2.2,0.2,4.5,0.2,6.8,0l3,6.2
		c0.6,2.3,3.2,3.6,5.8,3l7.8-1.9c2.6-0.7,4.3-3,3.8-5.3l-0.2-7.2c2.1-1,4-2.1,5.9-3.3l5.7,3.9c1.6,1.7,4.6,1.6,6.5-0.3l5.8-5.6
		c2-1.9,2.2-4.8,0.6-6.5l-3.8-6.2c1.3-1.9,2.4-3.8,3.4-5.8l6.9,0.5c2.3,0.7,4.7-0.9,5.5-3.5l2.3-7.8
		C138.4,85.5,137.2,82.8,134.9,82.2z"/>
	<rect x="75" y="41" fill="#ABADB0" width="2" height="5"/>
	
		<rect x="78.9" y="44" transform="matrix(0.1745 -0.9846 0.9846 0.1745 23.2655 116.8029)" fill="#ABADB0" width="4.8" height="1.1"/>
	
		<rect x="84.1" y="45.5" transform="matrix(0.3441 -0.9389 0.9389 0.3441 13.4974 111.4106)" fill="#ABADB0" width="4.8" height="1.1"/>
	
		<rect x="88.9" y="47.9" transform="matrix(0.5029 -0.8644 0.8644 0.5029 3.5324 103.0376)" fill="#ABADB0" width="4.8" height="1.1"/>
	
		<rect x="95.1" y="49.2" transform="matrix(-0.7633 -0.6461 0.6461 -0.7633 135.3596 152.9238)" fill="#ABADB0" width="1.1" height="4.8"/>
	
		<rect x="98.9" y="53.2" transform="matrix(-0.6385 -0.7696 0.7696 -0.6385 120.1279 167.5983)" fill="#ABADB0" width="1.1" height="4.8"/>
	
		<rect x="101.8" y="57.7" transform="matrix(-0.493 -0.87 0.87 -0.493 100.6048 178.8318)" fill="#ABADB0" width="1.1" height="4.8"/>
	
		<rect x="104" y="62.7" transform="matrix(-0.3352 -0.9421 0.9421 -0.3352 78.2908 185.3889)" fill="#ABADB0" width="1.1" height="4.8"/>
	
		<rect x="105.2" y="67.9" transform="matrix(0.165 0.9863 -0.9863 0.165 157.715 -45.6118)" fill="#ABADB0" width="1.1" height="4.8"/>
	
		<rect x="103.7" y="75.2" transform="matrix(0.9999 1.039985e-02 -1.039985e-02 0.9999 0.7935 -1.0994)" fill="#ABADB0" width="4.8" height="1.1"/>
	
		<rect x="103" y="80.5" transform="matrix(0.9827 0.1851 -0.1851 0.9827 16.8411 -18.1222)" fill="#ABADB0" width="4.8" height="1.1"/>
	
		<rect x="101.5" y="85.7" transform="matrix(0.9353 0.3538 -0.3538 0.9353 37.2478 -31.1716)" fill="#ABADB0" width="4.8" height="1.1"/>
	<rect x="99" y="90.6" transform="matrix(0.859 0.512 -0.512 0.859 60.95 -39.0819)" fill="#ABADB0" width="4.8" height="1.1"/>
	
		<rect x="95.8" y="94.9" transform="matrix(0.7562 0.6544 -0.6544 0.7562 86.3956 -40.9702)" fill="#ABADB0" width="4.8" height="1.1"/>
	
		<rect x="91.8" y="98.6" transform="matrix(0.6303 0.7763 -0.7763 0.6303 111.7839 -36.4908)" fill="#ABADB0" width="4.8" height="1.1"/>
	
		<rect x="89.1" y="99.6" transform="matrix(-0.8747 0.4847 -0.4847 -0.8747 217.5453 147.8787)" fill="#ABADB0" width="1.1" height="4.8"/>
	<polygon fill="#ABADB0" points="84.9,106.6 86,106.3 84.4,101.7 83.3,102 	"/>
	
		<rect x="78.8" y="102.9" transform="matrix(-0.9878 0.1555 -0.1555 -0.9878 174.1949 197.0605)" fill="#ABADB0" width="1.1" height="4.8"/>
	
		<rect x="71.6" y="105" transform="matrix(-2.084228e-02 0.9998 -0.9998 -2.084228e-02 181.0948 33.8288)" fill="#ABADB0" width="4.8" height="1.1"/>
	
		<rect x="66.2" y="104.3" transform="matrix(-0.1948 0.9809 -0.9809 -0.1948 184.8654 58.0212)" fill="#ABADB0" width="4.8" height="1.1"/>
	
		<rect x="61" y="102.7" transform="matrix(-0.3637 0.9315 -0.9315 -0.3637 182.7251 81.7102)" fill="#ABADB0" width="4.8" height="1.1"/>
	<rect x="58.1" y="98.3" transform="matrix(0.8542 0.52 -0.52 0.8542 60.9452 -15.8062)" fill="#ABADB0" width="1.1" height="4.8"/>
	
		<rect x="53.8" y="95" transform="matrix(0.7498 0.6617 -0.6617 0.7498 78.0897 -11.589)" fill="#ABADB0" width="1.1" height="4.8"/>
	
		<rect x="50.2" y="91" transform="matrix(0.6226 0.7825 -0.7825 0.6226 92.2741 -4.4262)" fill="#ABADB0" width="1.1" height="4.8"/>
	<polygon fill="#ABADB0" points="50.2,88.2 49.7,87.2 45.4,89.5 46,90.5 	"/>
	
		<rect x="45.2" y="81.4" transform="matrix(0.316 0.9488 -0.9488 0.316 110.8926 13.9139)" fill="#ABADB0" width="1.1" height="4.8"/>
	<polygon fill="#ABADB0" points="47.1,78.8 47,77.7 42.2,78.4 42.3,79.5 	"/>
	<polygon fill="#ABADB0" points="42,73.7 46.9,73.8 46.9,72.7 42.1,72.5 	"/>
	
		<rect x="42.8" y="67.2" transform="matrix(-0.9787 -0.2055 0.2055 -0.9787 75.5496 143.4548)" fill="#ABADB0" width="4.8" height="1.1"/>
	<polygon fill="#ABADB0" points="44.4,62.3 48.9,64.1 49.4,63 44.9,61.2 	"/>
	
		<rect x="47" y="57.3" transform="matrix(-0.8482 -0.5296 0.5296 -0.8482 60.7567 133.187)" fill="#ABADB0" width="4.8" height="1.1"/>
	<polygon fill="#ABADB0" points="55,54.8 51.4,51.6 50.6,52.4 54.2,55.7 	"/>
	
		<rect x="54.4" y="49.5" transform="matrix(0.6141 0.7892 -0.7892 0.6141 61.4246 -25.5613)" fill="#ABADB0" width="4.8" height="1.1"/>
	
		<rect x="60.9" y="44.8" transform="matrix(0.8834 -0.4686 0.4686 0.8834 -14.95 34.2985)" fill="#ABADB0" width="1.1" height="4.8"/>
	<polygon fill="#ABADB0" points="66.3,42.7 65.2,43.1 66.7,47.7 67.8,47.3 	"/>
	<polygon fill="#ABADB0" points="72,41.6 70.9,41.8 71.6,46.6 72.7,46.4 	"/>
	<path opacity="0.2" fill="#ABADB0" d="M77.4,59.4l1.1,5.7c4.4,1.3,7.7,5.4,7.7,10.2c0,5.9-4.8,10.7-10.7,10.7
		c-5.9,0-10.7-4.8-10.7-10.7c0-4.8,3.2-8.9,7.5-10.2l1.1-5.8c-8.2,1-14.6,8-14.6,16.5c0,9.2,7.4,16.6,16.6,16.6
		C84.5,92.5,92,85,92,75.9C92,67.4,85.6,60.4,77.4,59.4z"/>
	<path fill="#ABADB0" d="M64.8,75.3c0,5.9,4.8,10.7,10.7,10.7c5.9,0,10.7-4.8,10.7-10.7c0-4.9-3.2-8.9-7.7-10.2l-1.3-5.7L75,48.6
		v-0.6v0.3v-0.3v0.6l-1.8,10.7l-1,5.8C67.8,66.5,64.8,70.5,64.8,75.3z M75.4,80.2c-2.7,0-4.9-2.2-4.9-4.9c0-2.7,2.2-4.9,4.9-4.9
		c2.7,0,4.9,2.2,4.9,4.9C80.3,78,78.1,80.2,75.4,80.2z"/>
	<circle fill="#FFFFFE" cx="75.4" cy="75.3" r="4.9"/>
</g>
</svg>
